<svg width="6644" height="5568" viewBox="0 0 6644 5568" fill="none" xmlns="http://www.w3.org/2000/svg">
<path d="M2448 33.3008L2449.52 0.335932L2442.26 0.000576019L2435.53 2.74606L2448 33.3008ZM2447.91 33.3386L2458.76 64.5023L2459.58 64.2189L2460.37 63.8933L2447.91 33.3386ZM2165.5 131.702L2154.65 100.538L2153.36 100.985L2152.12 101.537L2165.5 131.702ZM1873.96 261.039L1885.86 291.818L1886.61 291.529L1887.34 291.204L1873.96 261.039ZM1590 370.841L1578.1 340.062L1576.23 340.785L1574.46 341.729L1590 370.841ZM1326.75 511.371L1311.2 482.259L1306.93 484.543L1303.49 487.96L1326.75 511.371ZM1104.36 732.299L1125.45 757.683L1126.58 756.745L1127.62 755.71L1104.36 732.299ZM870.209 926.809L849.123 901.425L848.454 901.98L847.816 902.57L870.209 926.809ZM657.054 1123.74L677.881 1149.33L678.686 1148.68L679.448 1147.97L657.054 1123.74ZM412.421 1322.78L391.593 1297.19L391.474 1297.28L391.355 1297.38L412.421 1322.78ZM182.649 1513.34L161.583 1487.94L156.626 1492.05L153.579 1497.72L182.649 1513.34ZM40.3721 1778.15L11.3022 1762.54L-0.00187302 1783.58L16.4519 1800.89L40.3721 1778.15ZM258.96 2008.15L283.834 1986.46L283.368 1985.93L282.881 1985.42L258.96 2008.15ZM457.372 2235.71L432.499 2257.4L432.506 2257.41L457.372 2235.71ZM665.31 2474.06L640.444 2495.75L640.457 2495.77L640.471 2495.78L665.31 2474.06ZM867.403 2705.11L842.564 2726.84L858.63 2745.21L880.9 2735.22L867.403 2705.11ZM1134.62 2585.35L1148.12 2615.46L1151.54 2613.93L1154.53 2611.66L1134.62 2585.35ZM1377.18 2401.81L1378.77 2368.85L1366.81 2368.28L1357.27 2375.5L1377.18 2401.81ZM1558.95 2410.55L1591.73 2406.77L1588.52 2378.94L1560.53 2377.59L1558.95 2410.55ZM1601.12 2775.89L1634.03 2773.43L1633.98 2772.77L1633.9 2772.1L1601.12 2775.89ZM1626.9 3121.15L1659.88 3119.91L1659.86 3119.3L1659.81 3118.69L1626.9 3121.15ZM1641.03 3496.32L1673.98 3498.12L1674.06 3496.6L1674 3495.08L1641.03 3496.32ZM1619.81 3885.32L1586.86 3883.53L1586.84 3883.83L1586.83 3884.14L1619.81 3885.32ZM1606.68 4250.15L1639.57 4252.86L1639.63 4252.1L1639.66 4251.34L1606.68 4250.15ZM1581.1 4560.88L1613.73 4565.79L1613.9 4564.69L1613.99 4563.58L1581.1 4560.88ZM1534.16 4872.79L1501.53 4867.88L1501 4871.36L1501.23 4874.88L1534.16 4872.79ZM1555.02 5202.15L1522.08 5204.23L1523.38 5224.77L1542.4 5232.64L1555.02 5202.15ZM1853.18 5325.52L1840.56 5356.02L1842.97 5357.01L1845.5 5357.62L1853.18 5325.52ZM2175.2 5402.6L2167.52 5434.69L2168.52 5434.93L2169.54 5435.11L2175.2 5402.6ZM2480.23 5455.73L2474.57 5488.24L2474.8 5488.28L2475.04 5488.32L2480.23 5455.73ZM2854.05 5515.25L2848.86 5547.84L2852.02 5548.34L2855.23 5548.23L2854.05 5515.25ZM3228.05 5501.83L3230.74 5468.94L3228.8 5468.79L3226.86 5468.86L3228.05 5501.83ZM3624.05 5534.27L3621.35 5567.16L3624.43 5567.42L3627.51 5567.09L3624.05 5534.27ZM3991.05 5495.59L3994.51 5528.41L3995.14 5528.34L3995.77 5528.25L3991.05 5495.59ZM4354.15 5443.08L4358.87 5475.74L4359.87 5475.59L4360.85 5475.39L4354.15 5443.08ZM4670.1 5377.55L4676.8 5409.86L4678.59 5409.49L4680.33 5408.92L4670.1 5377.55ZM4968.02 5280.39L4978.25 5311.76L4987.33 5308.8L4993.43 5301.44L4968.02 5280.39ZM5153.48 5056.63L5178.89 5077.69L5189.06 5065.42L5185.77 5049.82L5153.48 5056.63ZM5082.18 4718.63L5049.44 4722.75L5049.61 4724.11L5049.89 4725.44L5082.18 4718.63ZM5037.83 4366.63L5004.86 4368.09L5004.92 4369.43L5005.09 4370.75L5037.83 4366.63ZM5021.44 3997.05L5054.41 3995.59L5054.41 3995.51L5054.4 3995.43L5021.44 3997.05ZM5003.88 3638.78L4970.88 3638.52L4970.87 3639.46L4970.92 3640.4L5003.88 3638.78ZM5006.69 3281.62L4973.96 3277.43L4973.71 3279.39L4973.69 3281.36L5006.69 3281.62ZM5053.99 2912.04L5086.72 2916.23L5086.75 2916.02L5086.77 2915.82L5053.99 2912.04ZM5095.53 2552.04L5064.27 2541.48L5063.15 2544.79L5062.75 2548.25L5095.53 2552.04ZM5167.97 2337.47L5188.06 2311.29L5151.46 2283.22L5136.71 2326.92L5167.97 2337.47ZM5409.95 2523.09L5389.86 2549.27L5390.19 2549.52L5390.52 2549.77L5409.95 2523.09ZM5644.43 2693.86L5625.01 2720.53L5641.64 2732.65L5659.84 2723.04L5644.43 2693.86ZM5879.9 2569.57L5895.3 2598.75L5900.45 2596.04L5904.35 2591.72L5879.9 2569.57ZM6082.88 2345.51L6107.34 2367.66L6107.51 2367.48L6107.68 2367.29L6082.88 2345.51ZM6267.49 2135.36L6244.68 2111.51L6243.64 2112.5L6242.7 2113.58L6267.49 2135.36ZM6485.79 1926.64L6508.59 1950.49L6513.64 1945.67L6516.3 1939.22L6485.79 1926.64ZM6603.44 1641.19L6633.95 1653.76L6643.07 1631.63L6624.86 1616.09L6603.44 1641.19ZM6377.64 1448.47L6354.91 1472.4L6355.55 1473L6356.21 1473.57L6377.64 1448.47ZM6156.69 1238.66L6179.41 1214.73L6178.73 1214.09L6178.02 1213.49L6156.69 1238.66ZM5923.81 1041.26L5945.14 1016.09L5944.58 1015.61L5943.99 1015.15L5923.81 1041.26ZM5700.48 868.634L5677.76 892.565L5678.97 893.719L5680.3 894.744L5700.48 868.634ZM5469.97 649.764L5492.69 625.833L5491.96 625.139L5491.19 624.49L5469.97 649.764ZM5245.01 460.899L5266.23 435.625L5262.6 432.579L5258.26 430.677L5245.01 460.899ZM4950.03 331.561L4936.4 361.612L4936.59 361.699L4936.78 361.783L4950.03 331.561ZM4680.4 209.211L4694.03 179.16L4692.05 178.263L4689.98 177.632L4680.4 209.211ZM4394.4 122.452L4403.98 90.8729L4402.3 90.3635L4400.57 90.035L4394.4 122.452ZM4093.09 65.0454L4099.27 32.6286L4079.27 28.8188L4066.9 44.9786L4093.09 65.0454ZM3914.6 298.076L3931.97 326.132L3937.12 322.946L3940.79 318.143L3914.6 298.076ZM3658.58 456.621L3663.87 489.195L3670.37 488.14L3675.96 484.677L3658.58 456.621ZM3312 512.889L3306.39 545.408L3311.83 546.349L3317.29 545.463L3312 512.889ZM2975.5 454.8L2957.31 482.338L2963.08 486.144L2969.88 487.319L2975.5 454.8ZM2723.62 288.468L2697.21 308.254L2700.65 312.845L2705.44 316.006L2723.62 288.468ZM2535.48 37.3419L2561.89 17.5558L2552.56 5.09546L2537.01 4.37704L2535.48 37.3419ZM2448 33.3008L2435.53 2.74606L2435.44 2.78384L2447.91 33.3386L2460.37 63.8933L2460.47 63.8555L2448 33.3008ZM2447.91 33.3386L2437.05 2.17477L2154.65 100.538L2165.5 131.702L2176.36 162.865L2458.76 64.5023L2447.91 33.3386ZM2165.5 131.702L2152.12 101.537L1860.58 230.875L1873.96 261.039L1887.34 291.204L2178.88 161.866L2165.5 131.702ZM1873.96 261.039L1862.06 230.26L1578.1 340.062L1590 370.841L1601.9 401.62L1885.86 291.818L1873.96 261.039ZM1590 370.841L1574.46 341.729L1311.2 482.259L1326.75 511.371L1342.29 540.483L1605.54 399.953L1590 370.841ZM1326.75 511.371L1303.49 487.96L1081.1 708.888L1104.36 732.299L1127.62 755.71L1350 534.782L1326.75 511.371ZM1104.36 732.299L1083.28 706.914L849.123 901.425L870.209 926.809L891.296 952.193L1125.45 757.683L1104.36 732.299ZM870.209 926.809L847.816 902.57L634.661 1099.5L657.054 1123.74L679.448 1147.97L892.603 951.048L870.209 926.809ZM657.054 1123.74L636.227 1098.14L391.593 1297.19L412.421 1322.78L433.248 1348.38L677.881 1149.33L657.054 1123.74ZM412.421 1322.78L391.355 1297.38L161.583 1487.94L182.649 1513.34L203.715 1538.74L433.487 1348.18L412.421 1322.78ZM182.649 1513.34L153.579 1497.72L11.3022 1762.54L40.3721 1778.15L69.4421 1793.77L211.719 1528.96L182.649 1513.34ZM40.3721 1778.15L16.4519 1800.89L235.04 2030.88L258.96 2008.15L282.881 1985.42L64.2924 1755.42L40.3721 1778.15ZM258.96 2008.15L234.087 2029.84L432.499 2257.4L457.372 2235.71L482.246 2214.03L283.834 1986.46L258.96 2008.15ZM457.372 2235.71L432.506 2257.41L640.444 2495.75L665.31 2474.06L690.177 2452.36L482.239 2214.02L457.372 2235.71ZM665.31 2474.06L640.471 2495.78L842.564 2726.84L867.403 2705.11L892.242 2683.39L690.149 2452.33L665.31 2474.06ZM867.403 2705.11L880.9 2735.22L1148.12 2615.46L1134.62 2585.35L1121.12 2555.23L853.906 2675L867.403 2705.11ZM1134.62 2585.35L1154.53 2611.66L1397.09 2428.13L1377.18 2401.81L1357.27 2375.5L1114.71 2559.03L1134.62 2585.35ZM1377.18 2401.81L1375.6 2434.77L1557.36 2443.52L1558.95 2410.55L1560.53 2377.59L1378.77 2368.85L1377.18 2401.81ZM1558.95 2410.55L1526.16 2414.34L1568.34 2779.67L1601.12 2775.89L1633.9 2772.1L1591.73 2406.77L1558.95 2410.55ZM1601.12 2775.89L1568.21 2778.35L1593.99 3123.61L1626.9 3121.15L1659.81 3118.69L1634.03 2773.43L1601.12 2775.89ZM1626.9 3121.15L1593.93 3122.39L1608.05 3497.57L1641.03 3496.32L1674 3495.08L1659.88 3119.91L1626.9 3121.15ZM1641.03 3496.32L1608.08 3494.53L1586.86 3883.53L1619.81 3885.32L1652.76 3887.12L1673.98 3498.12L1641.03 3496.32ZM1619.81 3885.32L1586.83 3884.14L1573.7 4248.96L1606.68 4250.15L1639.66 4251.34L1652.79 3886.51L1619.81 3885.32ZM1606.68 4250.15L1573.79 4247.44L1548.21 4558.17L1581.1 4560.88L1613.99 4563.58L1639.57 4252.86L1606.68 4250.15ZM1581.1 4560.88L1548.47 4555.97L1501.53 4867.88L1534.16 4872.79L1566.79 4877.7L1613.73 4565.79L1581.1 4560.88ZM1534.16 4872.79L1501.23 4874.88L1522.08 5204.23L1555.02 5202.15L1587.95 5200.06L1567.09 4870.71L1534.16 4872.79ZM1555.02 5202.15L1542.4 5232.64L1840.56 5356.02L1853.18 5325.52L1865.8 5295.03L1567.63 5171.65L1555.02 5202.15ZM1853.18 5325.52L1845.5 5357.62L2167.52 5434.69L2175.2 5402.6L2182.89 5370.51L1860.86 5293.43L1853.18 5325.52ZM2175.2 5402.6L2169.54 5435.11L2474.57 5488.24L2480.23 5455.73L2485.89 5423.22L2180.87 5370.09L2175.2 5402.6ZM2480.23 5455.73L2475.04 5488.32L2848.86 5547.84L2854.05 5515.25L2859.24 5482.66L2485.42 5423.14L2480.23 5455.73ZM2854.05 5515.25L2855.23 5548.23L3229.23 5534.81L3228.05 5501.83L3226.86 5468.86L2852.86 5482.27L2854.05 5515.25ZM3228.05 5501.83L3225.35 5534.72L3621.35 5567.16L3624.05 5534.27L3626.74 5501.38L3230.74 5468.94L3228.05 5501.83ZM3624.05 5534.27L3627.51 5567.09L3994.51 5528.41L3991.05 5495.59L3987.59 5462.77L3620.59 5501.46L3624.05 5534.27ZM3991.05 5495.59L3995.77 5528.25L4358.87 5475.74L4354.15 5443.08L4349.43 5410.42L3986.32 5462.93L3991.05 5495.59ZM4354.15 5443.08L4360.85 5475.39L4676.8 5409.86L4670.1 5377.55L4663.4 5345.24L4347.45 5410.76L4354.15 5443.08ZM4670.1 5377.55L4680.33 5408.92L4978.25 5311.76L4968.02 5280.39L4957.79 5249.01L4659.87 5346.17L4670.1 5377.55ZM4968.02 5280.39L4993.43 5301.44L5178.89 5077.69L5153.48 5056.63L5128.08 5035.57L4942.62 5259.33L4968.02 5280.39ZM5153.48 5056.63L5185.77 5049.82L5114.47 4711.82L5082.18 4718.63L5049.89 4725.44L5121.2 5063.44L5153.48 5056.63ZM5082.18 4718.63L5114.92 4714.5L5070.57 4362.5L5037.83 4366.63L5005.09 4370.75L5049.44 4722.75L5082.18 4718.63ZM5037.83 4366.63L5070.8 4365.17L5054.41 3995.59L5021.44 3997.05L4988.48 3998.51L5004.86 4368.09L5037.83 4366.63ZM5021.44 3997.05L5054.4 3995.43L5036.84 3637.17L5003.88 3638.78L4970.92 3640.4L4988.48 3998.67L5021.44 3997.05ZM5003.88 3638.78L5036.87 3639.04L5039.69 3281.88L5006.69 3281.62L4973.69 3281.36L4970.88 3638.52L5003.88 3638.78ZM5006.69 3281.62L5039.42 3285.81L5086.72 2916.23L5053.99 2912.04L5021.25 2907.85L4973.96 3277.43L5006.69 3281.62ZM5053.99 2912.04L5086.77 2915.82L5128.31 2555.82L5095.53 2552.04L5062.75 2548.25L5021.2 2908.25L5053.99 2912.04ZM5095.53 2552.04L5126.8 2562.59L5199.24 2348.03L5167.97 2337.47L5136.71 2326.92L5064.27 2541.48L5095.53 2552.04ZM5167.97 2337.47L5147.89 2363.66L5389.86 2549.27L5409.95 2523.09L5430.03 2496.91L5188.06 2311.29L5167.97 2337.47ZM5409.95 2523.09L5390.52 2549.77L5625.01 2720.53L5644.43 2693.86L5663.86 2667.18L5429.37 2496.41L5409.95 2523.09ZM5644.43 2693.86L5659.84 2723.04L5895.3 2598.75L5879.9 2569.57L5864.49 2540.38L5629.03 2664.67L5644.43 2693.86ZM5879.9 2569.57L5904.35 2591.72L6107.34 2367.66L6082.88 2345.51L6058.43 2323.35L5855.44 2547.41L5879.9 2569.57ZM6082.88 2345.51L6107.68 2367.29L6292.28 2157.14L6267.49 2135.36L6242.7 2113.58L6058.09 2323.73L6082.88 2345.51ZM6267.49 2135.36L6290.29 2159.21L6508.59 1950.49L6485.79 1926.64L6462.98 1902.79L6244.68 2111.51L6267.49 2135.36ZM6485.79 1926.64L6516.3 1939.22L6633.95 1653.76L6603.44 1641.19L6572.93 1628.61L6455.28 1914.07L6485.79 1926.64ZM6603.44 1641.19L6624.86 1616.09L6399.06 1423.37L6377.64 1448.47L6356.21 1473.57L6582.01 1666.29L6603.44 1641.19ZM6377.64 1448.47L6400.36 1424.54L6179.41 1214.73L6156.69 1238.66L6133.96 1262.59L6354.91 1472.4L6377.64 1448.47ZM6156.69 1238.66L6178.02 1213.49L5945.14 1016.09L5923.81 1041.26L5902.47 1066.43L6135.35 1263.83L6156.69 1238.66ZM5923.81 1041.26L5943.99 1015.15L5720.66 842.525L5700.48 868.634L5680.3 894.744L5903.62 1067.37L5923.81 1041.26ZM5700.48 868.634L5723.2 844.703L5492.69 625.833L5469.97 649.764L5447.24 673.695L5677.76 892.565L5700.48 868.634ZM5469.97 649.764L5491.19 624.49L5266.23 435.625L5245.01 460.899L5223.79 486.173L5448.75 675.038L5469.97 649.764ZM5245.01 460.899L5258.26 430.677L4963.29 301.338L4950.03 331.561L4936.78 361.783L5231.75 491.122L5245.01 460.899ZM4950.03 331.561L4963.67 301.51L4694.03 179.16L4680.4 209.211L4666.76 239.262L4936.4 361.612L4950.03 331.561ZM4680.4 209.211L4689.98 177.632L4403.98 90.8729L4394.4 122.452L4384.82 154.031L4670.82 240.79L4680.4 209.211ZM4394.4 122.452L4400.57 90.035L4099.27 32.6286L4093.09 65.0454L4086.92 97.4623L4388.22 154.869L4394.4 122.452ZM4093.09 65.0454L4066.9 44.9786L3888.4 278.009L3914.6 298.076L3940.79 318.143L4119.29 85.1123L4093.09 65.0454ZM3914.6 298.076L3897.22 270.02L3641.21 428.565L3658.58 456.621L3675.96 484.677L3931.97 326.132L3914.6 298.076ZM3658.58 456.621L3653.3 424.048L3306.71 480.316L3312 512.889L3317.29 545.463L3663.87 489.195L3658.58 456.621ZM3312 512.889L3317.61 480.37L2981.11 422.281L2975.5 454.8L2969.88 487.319L3306.39 545.408L3312 512.889ZM2975.5 454.8L2993.68 427.263L2741.81 260.931L2723.62 288.468L2705.44 316.006L2957.31 482.338L2975.5 454.8ZM2723.62 288.468L2750.03 268.682L2561.89 17.5558L2535.48 37.3419L2509.07 57.1279L2697.21 308.254L2723.62 288.468ZM2535.48 37.3419L2537.01 4.37704L2449.52 0.335932L2448 33.3008L2446.48 66.2656L2533.96 70.3067L2535.48 37.3419Z" fill="#565656"/>
</svg>
